<svg width="24" height="24" viewBox="0 0 24 24" xmlns="http://www.w3.org/2000/svg">
  <circle cx="12" cy="12" r="12" fill="#181717"/>
  <path fill="#FFFFFF" fill-rule="evenodd" clip-rule="evenodd" d="M12 5.25c-3.73 0-6.75 3.02-6.75 6.75 0 2.98 1.94 5.49 4.63 6.38.34.06.47-.15.47-.33 0-.16-.01-.7-.01-1.27-1.72.31-2.16-.42-2.3-.81-.08-.2-.42-.82-.72-.99-.25-.13-.6-.45-.01-.46.55-.01.95.5 1.08.71.63 1.06 1.64.76 2.04.58.06-.46.25-.76.45-.94-1.52-.17-3.11-.76-3.11-3.39 0-.75.27-1.37.71-1.85-.07-.17-.31-.86.07-1.79 0 0 .58-.19 1.9.71.55-.15 1.14-.23 1.72-.23.58 0 1.17.08 1.72.23 1.32-.91 1.9-.71 1.9-.71.38.93.14 1.62.07 1.79.44.48.71 1.1.71 1.85 0 2.64-1.59 3.22-3.11 3.39.26.22.48.65.48 1.32 0 .94-.01 1.7-.01 1.93 0 .18.12.39.47.33a6.766 6.766 0 0 0 4.63-6.38c0-3.73-3.02-6.75-6.75-6.75Z"/>
</svg>
