<svg width="24" height="24" viewBox="0 0 24 24" xmlns="http://www.w3.org/2000/svg">
  <circle cx="12" cy="12" r="12" fill="#25D366"/>
  <path fill="#FFFFFF" d="M12.01 6.5c-2.98 0-5.4 2.41-5.4 5.39 0 1 .28 1.93.77 2.72l-.83 3.04 3.12-.82a5.38 5.38 0 0 0 2.34.55h.01c2.98 0 5.4-2.41 5.4-5.39a5.36 5.36 0 0 0-5.41-5.49Zm0 9.62c-.73 0-1.45-.19-2.09-.55l-.15-.09-1.85.49.5-1.8-.1-.18a3.86 3.86 0 0 1-.57-2c0-2.15 1.75-3.89 3.91-3.89a3.9 3.9 0 0 1 3.92 3.96c0 2.15-1.75 3.86-3.9 3.86Zm2.26-2.88c-.12-.06-.73-.36-.85-.4-.11-.04-.19-.06-.27.06-.08.13-.31.4-.38.47-.07.08-.14.09-.26.03-.12-.06-.5-.18-.96-.57a3.57 3.57 0 0 1-.66-.82c-.07-.12-.01-.18.05-.24.06-.06.13-.15.19-.23.06-.08.08-.13.12-.21.04-.08.02-.15-.01-.21-.03-.06-.27-.64-.37-.88-.1-.24-.2-.2-.27-.2l-.23-.01c-.08 0-.2.03-.31.15-.11.12-.41.4-.41.98 0 .58.42 1.14.48 1.22.06.08.83 1.27 2.02 1.78.28.12.5.19.67.24.28.09.53.08.73.05.22-.03.73-.3.83-.59.1-.29.1-.53.07-.59-.03-.06-.11-.09-.23-.15Z"/>
</svg>
